<svg width="16" height="18" viewBox="0 0 16 18" fill="none" xmlns="http://www.w3.org/2000/svg">
<g clip-path="url(#clip0_923_123)">
<path d="M8.00332 4.95684C5.73189 4.95684 3.89975 6.76035 3.89975 8.99629C3.89975 11.2322 5.73189 13.0357 8.00332 13.0357C10.2747 13.0357 12.1069 11.2322 12.1069 8.99629C12.1069 6.76035 10.2747 4.95684 8.00332 4.95684ZM8.00332 11.6225C6.53546 11.6225 5.33546 10.4447 5.33546 8.99629C5.33546 7.54785 6.53189 6.37012 8.00332 6.37012C9.47475 6.37012 10.6712 7.54785 10.6712 8.99629C10.6712 10.4447 9.47118 11.6225 8.00332 11.6225ZM13.2319 4.7916C13.2319 5.31543 12.8033 5.73379 12.2747 5.73379C11.7426 5.73379 11.3176 5.31191 11.3176 4.7916C11.3176 4.27129 11.7462 3.84941 12.2747 3.84941C12.8033 3.84941 13.2319 4.27129 13.2319 4.7916ZM15.9497 5.74785C15.889 4.48574 15.5962 3.36777 14.6569 2.44668C13.7212 1.52559 12.5855 1.2373 11.3033 1.17402C9.98189 1.1002 6.02118 1.1002 4.69975 1.17402C3.42118 1.23379 2.28546 1.52207 1.34618 2.44316C0.406892 3.36426 0.117606 4.48223 0.0533203 5.74434C-0.0216797 7.04512 -0.0216797 10.9439 0.0533203 12.2447C0.114035 13.5068 0.406892 14.6248 1.34618 15.5459C2.28546 16.467 3.41761 16.7553 4.69975 16.8186C6.02118 16.8924 9.98189 16.8924 11.3033 16.8186C12.5855 16.7588 13.7212 16.4705 14.6569 15.5459C15.5926 14.6248 15.8855 13.5068 15.9497 12.2447C16.0247 10.9439 16.0247 7.04863 15.9497 5.74785ZM14.2426 13.6404C13.964 14.3295 13.4247 14.8604 12.7212 15.1381C11.6676 15.5494 9.16761 15.4545 8.00332 15.4545C6.83903 15.4545 4.33546 15.5459 3.28546 15.1381C2.58546 14.8639 2.04618 14.333 1.76403 13.6404C1.34618 12.6033 1.44261 10.1424 1.44261 8.99629C1.44261 7.8502 1.34975 5.38574 1.76403 4.35215C2.04261 3.66309 2.58189 3.13223 3.28546 2.85449C4.33903 2.44316 6.83903 2.53809 8.00332 2.53809C9.16761 2.53809 11.6712 2.44668 12.7212 2.85449C13.4212 3.12871 13.9605 3.65957 14.2426 4.35215C14.6605 5.38926 14.564 7.8502 14.564 8.99629C14.564 10.1424 14.6605 12.6068 14.2426 13.6404Z" fill="white"/>
</g>
<defs>
<clipPath id="clip0_923_123">
<rect width="16" height="18" fill="white"/>
</clipPath>
</defs>
</svg>
