<svg width="17" height="17" viewBox="0 0 17 17" fill="none" xmlns="http://www.w3.org/2000/svg">
<path d="M15.2525 5.03741C15.2633 5.18842 15.2633 5.33946 15.2633 5.49046C15.2633 10.0964 11.7576 15.4035 5.35025 15.4035C3.37626 15.4035 1.54252 14.8318 0 13.8395C0.280467 13.8718 0.550109 13.8826 0.841367 13.8826C2.47015 13.8826 3.96953 13.3325 5.16687 12.394C3.63514 12.3617 2.35151 11.3585 1.90925 9.97777C2.125 10.0101 2.34072 10.0317 2.56727 10.0317C2.88007 10.0317 3.19291 9.98853 3.48414 9.91306C1.8877 9.58942 0.690326 8.18716 0.690326 6.49363V6.4505C1.15414 6.70938 1.69353 6.87118 2.26518 6.89273C1.32673 6.26709 0.711908 5.19921 0.711908 3.99108C0.711908 3.34388 0.884465 2.75061 1.18651 2.23284C2.90162 4.34705 5.47968 5.72774 8.37051 5.87878C8.31659 5.61989 8.28421 5.35025 8.28421 5.08057C8.28421 3.1605 9.83752 1.59644 11.7683 1.59644C12.7715 1.59644 13.6776 2.01712 14.314 2.69669C15.1014 2.54568 15.8565 2.25442 16.5253 1.85532C16.2664 2.66435 15.7163 3.34392 14.9936 3.77536C15.6948 3.69989 16.3743 3.50568 16.9999 3.23604C16.5254 3.92637 15.9321 4.54119 15.2525 5.03741Z" fill="white"/>
</svg>
