<svg width="31" height="32" viewBox="0 0 31 32" fill="none" xmlns="http://www.w3.org/2000/svg">
<path d="M3.00488 8.41569C3.00488 8.07312 3.13658 7.74458 3.371 7.50234C3.60542 7.26011 3.92336 7.12402 4.25488 7.12402H26.7549C27.0864 7.12402 27.4043 7.26011 27.6388 7.50234C27.8732 7.74458 28.0049 8.07312 28.0049 8.41569C28.0049 8.75826 27.8732 9.0868 27.6388 9.32904C27.4043 9.57127 27.0864 9.70736 26.7549 9.70736H4.25488C3.92336 9.70736 3.60542 9.57127 3.371 9.32904C3.13658 9.0868 3.00488 8.75826 3.00488 8.41569ZM3.00488 16.207C3.00488 15.8645 3.13658 15.5359 3.371 15.2937C3.60542 15.0514 3.92336 14.9154 4.25488 14.9154H26.7549C27.0864 14.9154 27.4043 15.0514 27.6388 15.2937C27.8732 15.5359 28.0049 15.8645 28.0049 16.207C28.0049 16.5496 27.8732 16.8781 27.6388 17.1204C27.4043 17.3626 27.0864 17.4987 26.7549 17.4987H4.25488C3.92336 17.4987 3.60542 17.3626 3.371 17.1204C3.13658 16.8781 3.00488 16.5496 3.00488 16.207ZM4.25488 22.708C3.92336 22.708 3.60542 22.8441 3.371 23.0863C3.13658 23.3285 3.00488 23.6571 3.00488 23.9997C3.00488 24.3422 3.13658 24.6708 3.371 24.913C3.60542 25.1552 3.92336 25.2913 4.25488 25.2913H26.7549C27.0864 25.2913 27.4043 25.1552 27.6388 24.913C27.8732 24.6708 28.0049 24.3422 28.0049 23.9997C28.0049 23.6571 27.8732 23.3285 27.6388 23.0863C27.4043 22.8441 27.0864 22.708 26.7549 22.708H4.25488Z" fill="white"/>
</svg>
