<svg width="25" height="25" viewBox="0 0 25 25" fill="none" xmlns="http://www.w3.org/2000/svg">
<path d="M7.76855 18.9092H14.7686M7.76855 14.9092H8.76855M7.76855 10.9092H10.7686M7.76855 2.90918H17.2686L21.7686 7.40918V19.9092" stroke="#5C5C5C" stroke-width="1.5" stroke-linecap="round" stroke-linejoin="round"/>
<path d="M3.76855 21.4092V7.40918C3.76855 7.01135 3.92659 6.62982 4.20789 6.34852C4.4892 6.06721 4.87073 5.90918 5.26855 5.90918H15.0206C15.1796 5.90932 15.3321 5.97263 15.4446 6.08518L18.5926 9.23318C18.6485 9.28908 18.6929 9.3555 18.7231 9.42861C18.7533 9.50172 18.7687 9.58008 18.7686 9.65918V21.4092C18.7686 21.807 18.6105 22.1885 18.3292 22.4698C18.0479 22.7511 17.6664 22.9092 17.2686 22.9092H5.26855C4.87073 22.9092 4.4892 22.7511 4.20789 22.4698C3.92659 22.1885 3.76855 21.807 3.76855 21.4092Z" stroke="#5C5C5C" stroke-width="1.5" stroke-linecap="round" stroke-linejoin="round"/>
<path d="M14.7686 5.90918V9.30918C14.7686 9.46831 14.8318 9.62092 14.9443 9.73344C15.0568 9.84597 15.2094 9.90918 15.3686 9.90918H18.7686" stroke="#5C5C5C" stroke-width="1.5" stroke-linecap="round" stroke-linejoin="round"/>
</svg>
