<svg width="25" height="25" viewBox="0 0 25 25" fill="none" xmlns="http://www.w3.org/2000/svg">
<path d="M19.9986 16.1692L17.4586 15.8792C17.1599 15.8441 16.8572 15.8772 16.5732 15.9759C16.2891 16.0746 16.0311 16.2364 15.8186 16.4492L13.9786 18.2892C11.14 16.8451 8.83266 14.5378 7.3886 11.6992L9.2386 9.84919C9.6686 9.41919 9.8786 8.81919 9.8086 8.20919L9.5186 5.68919C9.46211 5.20128 9.22806 4.75121 8.86106 4.42479C8.49405 4.09836 8.01976 3.91839 7.5286 3.91919H5.7986C4.6686 3.91919 3.7286 4.85919 3.7986 5.98919C4.3286 14.5292 11.1586 21.3492 19.6886 21.8792C20.8186 21.9492 21.7586 21.0092 21.7586 19.8792V18.1492C21.7686 17.1392 21.0086 16.2892 19.9986 16.1692Z" fill="#5C5C5C"/>
</svg>
