<svg width="25" height="25" viewBox="0 0 25 25" fill="none" xmlns="http://www.w3.org/2000/svg">
<path d="M18.1396 20.7362L20.9796 17.9402L20.3536 17.3132L18.1396 19.4962L17.1846 18.5212L16.5576 19.1532L18.1396 20.7362ZM7.53855 9.64018H18.0006V8.64018H7.53755L7.53855 9.64018ZM18.7686 23.0252C17.6546 23.0252 16.7096 22.6368 15.9336 21.8602C15.1569 21.0842 14.7686 20.1392 14.7686 19.0252C14.7686 17.9112 15.1569 16.9658 15.9336 16.1892C16.7102 15.4125 17.6552 15.0245 18.7686 15.0252C19.8819 15.0258 20.8272 15.4138 21.6046 16.1892C22.3819 16.9645 22.7699 17.9098 22.7686 19.0252C22.7686 20.1385 22.3806 21.0835 21.6046 21.8602C20.8272 22.6368 19.8819 23.0252 18.7686 23.0252ZM4.76855 21.6782V6.52518C4.76855 6.07718 4.92589 5.69585 5.24055 5.38118C5.55522 5.06651 5.93655 4.90918 6.38455 4.90918H19.1536C19.6002 4.90918 19.9812 5.06651 20.2966 5.38118C20.6112 5.69585 20.7686 6.07718 20.7686 6.52518V12.4692C20.6059 12.4092 20.4446 12.3578 20.2846 12.3152C20.1239 12.2725 19.9519 12.2392 19.7686 12.2152V6.52518C19.7686 6.37118 19.7046 6.22985 19.5766 6.10118C19.4486 5.97251 19.3072 5.90851 19.1526 5.90918H6.38455C6.23055 5.90918 6.08922 5.97318 5.96055 6.10118C5.83189 6.22918 5.76789 6.37051 5.76855 6.52518V19.9592H12.1126C12.1579 20.2325 12.2166 20.4998 12.2886 20.7612C12.3612 21.0225 12.4622 21.2718 12.5916 21.5092L12.5576 21.5432L11.4226 20.7172L10.0766 21.6782L8.73055 20.7172L7.38455 21.6782L6.03755 20.7172L4.76855 21.6782ZM7.53855 17.1782H12.2476C12.2849 16.9948 12.3309 16.8232 12.3856 16.6632C12.4402 16.5032 12.5042 16.3415 12.5776 16.1782H7.53855V17.1782ZM7.53855 13.4092H14.8486C15.1752 13.1512 15.5252 12.9362 15.8986 12.7642C16.2719 12.5915 16.6709 12.4732 17.0956 12.4092H7.53755L7.53855 13.4092Z" fill="#5C5C5C"/>
</svg>
