<svg width="25" height="25" viewBox="0 0 25 25" fill="none" xmlns="http://www.w3.org/2000/svg">
<path d="M6.90155 21.0904C5.72355 21.0904 4.76855 20.1104 4.76855 18.9004V10.0984C4.76855 9.43336 5.06355 8.80336 5.56855 8.38836L11.4356 3.57036C11.8104 3.25995 12.2819 3.09009 12.7686 3.09009C13.2553 3.09009 13.7267 3.25995 14.1016 3.57036L19.9676 8.38836C20.4736 8.80336 20.7686 9.43336 20.7686 10.0984V18.9004C20.7686 20.1104 19.8136 21.0904 18.6356 21.0904H6.90155Z" stroke="#5C5C5C" stroke-width="1.5" stroke-linecap="round" stroke-linejoin="round"/>
<path d="M10.2686 21.0903V15.5903C10.2686 15.0599 10.4793 14.5512 10.8543 14.1761C11.2294 13.801 11.7381 13.5903 12.2686 13.5903H13.2686C13.799 13.5903 14.3077 13.801 14.6828 14.1761C15.0578 14.5512 15.2686 15.0599 15.2686 15.5903V21.0903" stroke="#5C5C5C" stroke-width="1.5" stroke-linecap="round" stroke-linejoin="round"/>
</svg>
