<svg width="64" height="64" viewBox="0 0 64 64" fill="none" xmlns="http://www.w3.org/2000/svg">
<g opacity="0.06">
<rect width="64" height="64" rx="16" fill="#1565D8"/>
</g>
<path fill-rule="evenodd" clip-rule="evenodd" d="M48.933 27.7826V42.8334C48.933 45.9262 46.4258 48.4334 43.333 48.4334H20.933C17.8402 48.4334 15.333 45.9262 15.333 42.8334V27.7826C15.333 27.0014 15.7161 26.2699 16.3585 25.8228L20.4482 22.9767C20.8108 22.7243 21.3094 22.8137 21.5618 23.1763C21.8142 23.539 21.7248 24.0376 21.3621 24.29L17.2724 27.1361C17.0628 27.282 16.9371 27.5179 16.9331 27.7702C17.1833 27.6817 17.4525 27.6336 17.733 27.6336C18.161 27.6336 18.5812 27.7481 18.9501 27.9651L32.133 35.7219L45.3159 27.9651C45.9513 27.5913 46.6882 27.5433 47.3329 27.7708C47.3291 27.5183 47.2034 27.2821 46.9936 27.1361L43.021 24.3714C42.6583 24.1191 42.5689 23.6205 42.8213 23.2578C43.0737 22.8952 43.5723 22.8058 43.9349 23.0582L47.9075 25.8228C48.5499 26.2699 48.933 27.0014 48.933 27.7826Z" fill="black"/>
<path fill-rule="evenodd" clip-rule="evenodd" d="M20.333 27.3333V19.3333C20.333 17.1241 22.1239 15.3333 24.333 15.3333H40.333C42.5421 15.3333 44.333 17.1241 44.333 19.3333V27.3333L32.333 34.5333L20.333 27.3333ZM27.5334 23.3332H37.1334C37.5752 23.3332 37.9334 22.975 37.9334 22.5332C37.9334 22.0913 37.5752 21.7332 37.1334 21.7332H27.5334C27.0916 21.7332 26.7334 22.0913 26.7334 22.5332C26.7334 22.975 27.0916 23.3332 27.5334 23.3332ZM37.1334 28.1332H27.5334C27.0916 28.1332 26.7334 27.775 26.7334 27.3332C26.7334 26.8914 27.0916 26.5332 27.5334 26.5332H37.1334C37.5752 26.5332 37.9334 26.8914 37.9334 27.3332C37.9334 27.775 37.5752 28.1332 37.1334 28.1332Z" fill="#B8D0F3"/>
</svg>
