<svg width="64" height="64" viewBox="0 0 64 64" fill="none" xmlns="http://www.w3.org/2000/svg">
<g opacity="0.06">
<rect width="64" height="64" rx="16" fill="#1565D8"/>
</g>
<path fill-rule="evenodd" clip-rule="evenodd" d="M22.5332 26.1905C29.621 27.1907 35.1647 24.6074 39.0253 18.475C39.0446 18.4443 39.0623 18.4128 39.0784 18.3806C40.5641 20.0524 41.4665 22.2541 41.4665 24.6666V28.1333C41.4665 31.6369 39.5454 34.7867 36.5672 36.4276C36.1791 36.158 35.7078 36 35.1995 36C33.874 36 32.7995 37.0745 32.7995 38.4C32.7995 39.7255 33.874 40.8 35.1995 40.8C35.8708 40.8 36.4777 40.5244 36.9132 40.0802C36.2642 42.1189 34.3098 43.6 31.9995 43.6C29.1613 43.6 26.8602 41.3648 26.8566 38.6063L27.6155 36.5257C24.5333 34.9146 22.5332 31.7082 22.5332 28.1333V26.1905ZM22.5527 24.0658C22.8627 19.1174 26.9742 15.2 32.0006 15.2C34.1192 15.2 36.0751 15.8958 37.6525 17.0715C37.604 17.1214 37.5595 17.1778 37.5199 17.2408C34.0454 22.7598 29.1346 25.0258 22.6458 24.0741C22.6146 24.0695 22.5835 24.0668 22.5527 24.0658ZM24.8808 39.6535C25.4035 43.0197 28.3917 45.6 31.9998 45.6C35.6087 45.6 38.5974 43.0186 39.1191 39.6514L42.9554 40.425C44.4793 40.7223 45.6935 41.8745 46.07 43.3808L47.1763 47.8059C47.3025 48.3108 46.9207 48.7999 46.4002 48.7999H17.6002C17.0797 48.7999 16.6979 48.3108 16.8241 47.8059L17.9289 43.3865C18.3064 41.8766 19.5255 40.7227 21.0462 40.4302L24.8808 39.6535Z" fill="black"/>
<path opacity="0.3" fill-rule="evenodd" clip-rule="evenodd" d="M35.2004 39.2001C35.6422 39.2001 36.0004 38.8419 36.0004 38.4001C36.0004 37.9583 35.6422 37.6001 35.2004 37.6001C34.7586 37.6001 34.4004 37.9583 34.4004 38.4001C34.4004 38.8419 34.7586 39.2001 35.2004 39.2001Z" fill="#1565D8"/>
<path opacity="0.3" fill-rule="evenodd" clip-rule="evenodd" d="M42.9708 23.2H43.2001C44.5256 23.2 45.6001 24.2745 45.6001 25.6V28.8C45.6001 30.1254 44.5256 31.2 43.2001 31.2H42.6348C42.9177 30.2182 43.0671 29.1877 43.0671 28.1333V24.6666C43.0671 24.1694 43.0343 23.6798 42.9708 23.2Z" fill="#1565D8"/>
<path opacity="0.3" fill-rule="evenodd" clip-rule="evenodd" d="M21.3665 31.2H20.8004C19.4749 31.2 18.4004 30.1254 18.4004 28.8V25.6C18.4004 24.2745 19.4749 23.2 20.8004 23.2H21.0305C20.9669 23.6798 20.9341 24.1694 20.9341 24.6666V28.1333C20.9341 29.1877 21.0836 30.2182 21.3665 31.2Z" fill="#1565D8"/>
</svg>
