<svg width="19" height="19" viewBox="0 0 19 19" fill="none" xmlns="http://www.w3.org/2000/svg">
<g clip-path="url(#clip0_496_210)">
<path d="M16.0669 16.4258L12.7024 13.0553M14.5669 8.55078C14.5669 10.2415 13.8952 11.863 12.6997 13.0586C11.5042 14.2541 9.88265 14.9258 8.19189 14.9258C6.50114 14.9258 4.87963 14.2541 3.68409 13.0586C2.48854 11.863 1.81689 10.2415 1.81689 8.55078C1.81689 6.86003 2.48854 5.23852 3.68409 4.04298C4.87963 2.84743 6.50114 2.17578 8.19189 2.17578C9.88265 2.17578 11.5042 2.84743 12.6997 4.04298C13.8952 5.23852 14.5669 6.86003 14.5669 8.55078Z" stroke="white" stroke-width="2" stroke-linecap="round"/>
</g>
<defs>
<clipPath id="clip0_496_210">
<rect width="18" height="18" fill="white" transform="translate(0.316895 0.675781)"/>
</clipPath>
</defs>
</svg>
